<?xml version="1.0" encoding="UTF-8"?>
<svg width="531px" height="488px" viewBox="0 0 531 488" version="1.1" xmlns="http://www.w3.org/2000/svg" xmlns:xlink="http://www.w3.org/1999/xlink">
    <!-- Generator: Sketch 50.2 (55047) - http://www.bohemiancoding.com/sketch -->
    <title>favicon-dark@2x</title>
    <desc>Created with Sketch.</desc>
    <defs></defs>
    <g id="Page-1" stroke="none" stroke-width="1" fill="none" fill-rule="evenodd">
        <g id="favicon-dark">
            <circle id="Oval" fill="#1A1C40" cx="247.5" cy="120.5" r="18.5"></circle>
            <circle id="Oval" fill="#1A1C40" cx="219" cy="282" r="17"></circle>
            <circle id="Oval" fill="#1A1C40" cx="233.5" cy="355.5" r="23.5"></circle>
            <circle id="Oval" fill="#1A1C40" cx="463" cy="410" r="21"></circle>
            <circle id="Oval" fill="#1A1C40" cx="509" cy="466" r="22"></circle>
            <circle id="Oval" fill="#1A1C40" cx="338" cy="371" r="28"></circle>
            <circle id="Oval" fill="#1A1C40" cx="211" cy="196" r="26"></circle>
            <circle id="Oval" fill="#1A1C40" cx="78.5" cy="327.5" r="24.5"></circle>
            <circle id="Oval" fill="#1A1C40" cx="148" cy="78" r="27"></circle>
            <circle id="Oval" fill="#1A1C40" cx="95" cy="240" r="25"></circle>
            <circle id="Oval" fill="#1A1C40" cx="114" cy="293" r="18"></circle>
            <circle id="Oval" fill="#1A1C40" cx="31" cy="287" r="31"></circle>
            <circle id="Oval" fill="#1A1C40" cx="150" cy="22" r="22"></circle>
            <circle id="Oval" fill="#1A1C40" cx="234.5" cy="78.5" r="21.5"></circle>
            <circle id="Oval" fill="#1A1C40" cx="201" cy="318" r="21"></circle>
            <path d="M32,285 L93,239" id="Path-2" stroke="#1A1C40" stroke-width="25" opacity="0.381261199"></path>
            <path d="M98,246 L113,289" id="Path-3" stroke="#1A1C40" stroke-width="25" opacity="0.381261199"></path>
            <path d="M31,286 L82,322" id="Path-4" stroke="#1A1C40" stroke-width="25" opacity="0.381261199"></path>
            <path d="M84,321 L114,293" id="Path-5" stroke="#1A1C40" stroke-width="25" opacity="0.381261199"></path>
            <path d="M97,233 L146.56855,86" id="Path-6" stroke="#1A1C40" stroke-width="25" opacity="0.381261199"></path>
            <path d="M151,72 L148.5,21.5" id="Path-7" stroke="#1A1C40" stroke-width="25" opacity="0.381261199"></path>
            <path d="M153,19 L239,75" id="Path-8" stroke="#1A1C40" stroke-width="25" opacity="0.381261199"></path>
            <path d="M240,76 L247.5,117.5" id="Path-9" stroke="#1A1C40" stroke-width="25" opacity="0.381261199"></path>
            <path d="M252,114 L212,195" id="Path-10" stroke="#1A1C40" stroke-width="25" opacity="0.381261199"></path>
            <path d="M212,198 L218,281" id="Path-11" stroke="#1A1C40" stroke-width="25" opacity="0.381261199"></path>
            <path d="" id="Path-12" stroke="#1A1C40" stroke-width="25" opacity="0.381261199"></path>
            <path d="M218,282 L202,318" id="Path-13" stroke="#1A1C40" stroke-width="25" opacity="0.381261199"></path>
            <path d="M201,319 L232,354" id="Path-14" stroke="#1A1C40" stroke-width="25" opacity="0.381261199"></path>
            <path d="M233,355 L338,371" id="Path-15" stroke="#1A1C40" stroke-width="25" opacity="0.381261199"></path>
            <path d="M338,371 L463,410" id="Path-16" stroke="#1A1C40" stroke-width="25" opacity="0.381261199"></path>
            <path d="M463,410 L509,466" id="Path-17" stroke="#1A1C40" stroke-width="25" opacity="0.381261199"></path>
        </g>
    </g>
</svg>