<?xml version="1.0" encoding="UTF-8"?>
<svg width="712px" height="712px" viewBox="0 0 712 712" version="1.1" xmlns="http://www.w3.org/2000/svg" xmlns:xlink="http://www.w3.org/1999/xlink">
    <!-- Generator: Sketch 50.2 (55047) - http://www.bohemiancoding.com/sketch -->
    <title>favicon</title>
    <desc>Created with Sketch.</desc>
    <defs></defs>
    <g id="Page-1" stroke="none" stroke-width="1" fill="none" fill-rule="evenodd">
        <g id="favicon">
            <circle id="Background" fill="#1A1C40" cx="356" cy="356" r="356"></circle>
            <circle id="Oval" fill="#FFFFFF" cx="316.5" cy="215.5" r="18.5"></circle>
            <circle id="Oval" fill="#FFFFFF" cx="288" cy="377" r="17"></circle>
            <circle id="Oval" fill="#FFFFFF" cx="302.5" cy="450.5" r="23.5"></circle>
            <circle id="Oval" fill="#FFFFFF" cx="532" cy="505" r="21"></circle>
            <circle id="Oval" fill="#FFFFFF" cx="578" cy="561" r="22"></circle>
            <circle id="Oval" fill="#FFFFFF" cx="407" cy="466" r="28"></circle>
            <circle id="Oval" fill="#FFFFFF" cx="280" cy="291" r="26"></circle>
            <circle id="Oval" fill="#FFFFFF" cx="147.5" cy="422.5" r="24.5"></circle>
            <circle id="Oval" fill="#FFFFFF" cx="217" cy="173" r="27"></circle>
            <circle id="Oval" fill="#FFFFFF" cx="164" cy="335" r="25"></circle>
            <circle id="Oval" fill="#FFFFFF" cx="183" cy="388" r="18"></circle>
            <circle id="Oval" fill="#FFFFFF" cx="100" cy="382" r="31"></circle>
            <circle id="Oval" fill="#FFFFFF" cx="219" cy="117" r="22"></circle>
            <circle id="Oval" fill="#FFFFFF" cx="303.5" cy="173.5" r="21.5"></circle>
            <circle id="Oval" fill="#FFFFFF" cx="270" cy="413" r="21"></circle>
            <path d="M101,380 L162,334" id="Path-2" stroke="#FFFFFF" stroke-width="25" opacity="0.381261199"></path>
            <path d="M167,341 L182,384" id="Path-3" stroke="#FFFFFF" stroke-width="25" opacity="0.381261199"></path>
            <path d="M100,381 L151,417" id="Path-4" stroke="#FFFFFF" stroke-width="25" opacity="0.381261199"></path>
            <path d="M153,416 L183,388" id="Path-5" stroke="#FFFFFF" stroke-width="25" opacity="0.381261199"></path>
            <path d="M166,328 L215.56855,181" id="Path-6" stroke="#FFFFFF" stroke-width="25" opacity="0.381261199"></path>
            <path d="M220,167 L217.5,116.5" id="Path-7" stroke="#FFFFFF" stroke-width="25" opacity="0.381261199"></path>
            <path d="M222,114 L308,170" id="Path-8" stroke="#FFFFFF" stroke-width="25" opacity="0.381261199"></path>
            <path d="M309,171 L316.5,212.5" id="Path-9" stroke="#FFFFFF" stroke-width="25" opacity="0.381261199"></path>
            <path d="M321,209 L281,290" id="Path-10" stroke="#FFFFFF" stroke-width="25" opacity="0.381261199"></path>
            <path d="M281,293 L287,376" id="Path-11" stroke="#FFFFFF" stroke-width="25" opacity="0.381261199"></path>
            <path d="" id="Path-12" stroke="#FFFFFF" stroke-width="25" opacity="0.381261199"></path>
            <path d="M287,377 L271,413" id="Path-13" stroke="#FFFFFF" stroke-width="25" opacity="0.381261199"></path>
            <path d="M270,414 L301,449" id="Path-14" stroke="#FFFFFF" stroke-width="25" opacity="0.381261199"></path>
            <path d="M302,450 L407,466" id="Path-15" stroke="#FFFFFF" stroke-width="25" opacity="0.381261199"></path>
            <path d="M407,466 L532,505" id="Path-16" stroke="#FFFFFF" stroke-width="25" opacity="0.381261199"></path>
            <path d="M532,505 L578,561" id="Path-17" stroke="#FFFFFF" stroke-width="25" opacity="0.381261199"></path>
        </g>
    </g>
</svg>