<?xml version="1.0" encoding="UTF-8"?>
<svg width="712px" height="712px" viewBox="0 0 712 712" version="1.1" xmlns="http://www.w3.org/2000/svg" xmlns:xlink="http://www.w3.org/1999/xlink">
    <!-- Generator: Sketch 50.2 (55047) - http://www.bohemiancoding.com/sketch -->
    <title>Draco Logo</title>
    <desc>Created with Sketch.</desc>
    <defs></defs>
    <g id="Page-1" stroke="none" stroke-width="1" fill="none" fill-rule="evenodd">
        <g id="Draco">
            <circle id="Oval-2" fill="#1A1C40" cx="356" cy="356" r="356"></circle>
            <circle id="Oval" fill="#FFFFFF" cx="322.5" cy="208.5" r="12.5"></circle>
            <circle id="Oval" fill="#FFFFFF" cx="287" cy="376" r="15"></circle>
            <circle id="Oval" fill="#FFFFFF" cx="301.5" cy="449.5" r="15.5"></circle>
            <circle id="Oval" fill="#FFFFFF" cx="532" cy="505" r="14"></circle>
            <circle id="Oval" fill="#FFFFFF" cx="577.5" cy="560.5" r="14.5"></circle>
            <circle id="Oval" fill="#FFFFFF" cx="407" cy="466" r="14"></circle>
            <circle id="Oval" fill="#FFFFFF" cx="280" cy="291" r="13"></circle>
            <circle id="Oval" fill="#FFFFFF" cx="151.5" cy="417.5" r="14.5"></circle>
            <circle id="Oval" fill="#FFFFFF" cx="220" cy="170" r="15"></circle>
            <circle id="Oval" fill="#FFFFFF" cx="163.5" cy="334.5" r="12.5"></circle>
            <circle id="Oval" fill="#FFFFFF" cx="183" cy="388" r="9"></circle>
            <circle id="Oval" fill="#FFFFFF" cx="100.5" cy="381.5" r="15.5"></circle>
            <circle id="Oval" fill="#FFFFFF" cx="221.5" cy="114.5" r="12.5"></circle>
            <circle id="Oval" fill="#FFFFFF" cx="308" cy="169" r="13"></circle>
            <circle id="Oval" fill="#FFFFFF" cx="270" cy="413" r="14"></circle>
            <path d="M101,380 L162,334" id="Path-2" stroke="#FFFFFF" stroke-width="4" opacity="0.284442002"></path>
            <path d="M167,341 L182,384" id="Path-3" stroke="#FFFFFF" stroke-width="4" opacity="0.284442002"></path>
            <path d="M100,381 L151,417" id="Path-4" stroke="#FFFFFF" stroke-width="4" opacity="0.284442002"></path>
            <path d="M153,416 L183,388" id="Path-5" stroke="#FFFFFF" stroke-width="4" opacity="0.284442002"></path>
            <path d="M166,328 L215.56855,181" id="Path-6" stroke="#FFFFFF" stroke-width="4" opacity="0.284442002"></path>
            <path d="M220,167 L221,118" id="Path-7" stroke="#FFFFFF" stroke-width="4" opacity="0.284442002"></path>
            <path d="M222,114 L308,170" id="Path-8" stroke="#FFFFFF" stroke-width="4" opacity="0.284442002"></path>
            <path d="M309,171 L322,208" id="Path-9" stroke="#FFFFFF" stroke-width="4" opacity="0.284442002"></path>
            <path d="M321,209 L281,290" id="Path-10" stroke="#FFFFFF" stroke-width="4" opacity="0.284442002"></path>
            <path d="M281,293 L287,376" id="Path-11" stroke="#FFFFFF" stroke-width="4" opacity="0.284442002"></path>
            <path d="" id="Path-12" stroke="#FFFFFF" stroke-width="4" opacity="0.284442002"></path>
            <path d="M287,377 L271,413" id="Path-13" stroke="#FFFFFF" stroke-width="4" opacity="0.284442002"></path>
            <path d="M270,414 L301,449" id="Path-14" stroke="#FFFFFF" stroke-width="4" opacity="0.284442002"></path>
            <path d="M302,450 L407,466" id="Path-15" stroke="#FFFFFF" stroke-width="4" opacity="0.284442002"></path>
            <path d="M407,466 L532,505" id="Path-16" stroke="#FFFFFF" stroke-width="4" opacity="0.284442002"></path>
            <path d="M532,505 L578,561" id="Path-17" stroke="#FFFFFF" stroke-width="4" opacity="0.284442002"></path>
        </g>
    </g>
</svg>